<?xml version="1.0" encoding="UTF-8"?><svg id="Layer_2" xmlns="http://www.w3.org/2000/svg" viewBox="0 0 1704.37 962.98"><defs><style>.cls-1{fill:none;stroke:#b3b3b3;stroke-miterlimit:10;stroke-width:.75px;}</style></defs><g id="Layer_1-2"><polygon class="cls-1" points="1664.8 875.16 1647.36 894.19 1656.33 871.77 1664.8 875.16"/><path class="cls-1" d="M1656.33,871.77l-8.97,22.42s-11.57-4.41-12.74-4.16l21.71-18.26Z"/><polygon class="cls-1" points="1681.32 840.2 1683.28 855.28 1665.4 857.07 1675.56 851.87 1681.32 840.2"/><polygon class="cls-1" points="1676.74 821.36 1690.86 840.72 1681.32 840.2 1676.74 821.36"/><polygon class="cls-1" points="1683.28 855.28 1668.63 870.98 1664.8 875.16 1665.4 857.07 1683.28 855.28"/><polygon class="cls-1" points="1690.86 840.72 1683.28 855.28 1681.32 840.2 1690.86 840.72"/><polygon class="cls-1" points="1665.4 857.07 1664.8 875.16 1656.33 871.77 1665.4 857.07"/><polygon class="cls-1" points="1484.64 641.08 1485.43 663.91 1468.11 645.8 1484.64 641.08"/><polygon class="cls-1" points="1448.02 635.96 1433.85 656.82 1423.61 635.96 1448.02 635.96"/><polygon class="cls-1" points="1507.49 649.35 1501.97 671 1493.31 657.61 1507.49 649.35"/><polygon class="cls-1" points="1507.49 649.35 1536.62 682.03 1526.39 690.69 1507.49 649.35"/><polygon class="cls-1" points="1484.64 641.08 1493.31 657.61 1485.43 663.91 1484.64 641.08"/><polygon class="cls-1" points="1493.31 657.61 1501.97 671 1485.43 663.91 1493.31 657.61"/><polygon class="cls-1" points="1569.7 700.93 1549.22 696.2 1555.52 690.69 1569.7 700.93"/><polygon class="cls-1" points="1537.41 657.61 1536.62 682.03 1507.49 649.35 1537.41 657.61"/><polygon class="cls-1" points="1507.49 649.35 1526.39 690.69 1501.97 671 1507.49 649.35"/><polygon class="cls-1" points="1526.39 690.69 1514.57 690.69 1501.19 690.69 1501.97 671 1526.39 690.69"/><polygon class="cls-1" points="1555.52 690.69 1549.22 696.2 1536.62 682.03 1555.52 690.69"/><polygon class="cls-1" points="1555.52 679.67 1555.52 690.69 1536.62 682.03 1555.52 679.67"/><polygon class="cls-1" points="1537.41 657.61 1555.52 679.67 1536.62 682.03 1537.41 657.61"/><polygon class="cls-1" points="1309.31 619.79 1354.71 646.19 1360.22 686.36 1316.09 649.93 1299.07 619.79 1309.31 619.79"/><polygon class="cls-1" points="1388.57 680.06 1391.01 687.54 1360.22 686.36 1388.57 680.06"/><polygon class="cls-1" points="1354.71 646.19 1366.52 672.97 1360.22 686.36 1354.71 646.19"/><polygon class="cls-1" points="1388.57 680.06 1360.22 686.36 1366.52 672.97 1388.57 680.06"/><polygon class="cls-1" points="1433.85 656.82 1437.79 678.09 1427.55 671 1433.85 656.82"/><polygon class="cls-1" points="1416.98 618.29 1417.35 640.01 1408.32 647.77 1416.98 618.29"/><polygon class="cls-1" points="1408.32 611.51 1408.32 647.77 1368.95 635.61 1408.32 611.51"/><polygon class="cls-1" points="1434.23 686.36 1391.01 687.54 1388.57 680.06 1434.23 686.36"/><polygon class="cls-1" points="1417.31 648.95 1427.55 671 1417.31 678.09 1417.31 648.95"/><polygon class="cls-1" points="1423.61 635.96 1427.55 671 1417.31 648.95 1423.61 635.96"/><polygon class="cls-1" points="1408.32 611.51 1416.98 618.29 1408.32 647.77 1408.32 611.51"/><polygon class="cls-1" points="1399.66 666.27 1373.21 659.18 1368.95 635.61 1399.66 666.27"/><polygon class="cls-1" points="1408.32 647.77 1399.66 666.27 1368.95 635.61 1408.32 647.77"/><polygon class="cls-1" points="1423.61 635.96 1433.85 656.82 1427.55 671 1423.61 635.96"/><polygon class="cls-1" points="1064.07 732.23 1071.59 772.98 1062.93 743.84 1058.99 735.18 1064.07 732.23"/><polygon class="cls-1" points="1092.85 715.49 1071.59 772.98 1064.07 732.23 1092.85 715.49"/><polygon class="cls-1" points="1085.77 697.38 1092.85 715.49 1073.57 717.85 1085.77 697.38"/><polygon class="cls-1" points="1062.93 743.84 1058.99 772.98 1054.27 755.65 1062.93 743.84"/><polygon class="cls-1" points="1062.14 721.79 1064.07 732.23 1058.99 735.18 1062.14 721.79"/><polygon class="cls-1" points="1062.93 743.84 1071.59 772.98 1058.99 772.98 1062.93 743.84"/><polygon class="cls-1" points="1092.85 715.49 1064.07 732.23 1062.14 721.79 1073.57 717.85 1092.85 715.49"/><polygon class="cls-1" points="765.65 565.08 786.58 510.24 824.71 463.49 904.25 453.21 904.25 476.88 944.7 493.39 951.76 478.34 991.57 490.76 1014.44 514.76 1059.9 592.41 1098.77 583.19 1080.65 627.29 1039.7 668.25 1046.35 717.85 1019.23 742.62 1019.23 776.92 976.04 817.72 943.01 820.83 924.94 783.28 920.7 754.48 906.02 730.45 915.9 690.38 896.37 659.58 896.37 623.36 896.37 623.36 868.81 611.54 808.18 621.78 765.65 565.08"/><polygon class="cls-1" points="887.32 533.58 824.71 463.49 904.25 453.21 904.25 476.88 887.32 533.58"/><polygon class="cls-1" points="979.06 600.91 1059.9 592.41 1039.7 668.25 979.06 600.91"/><polygon class="cls-1" points="896.37 623.36 979.06 600.91 966.86 697.38 896.37 623.36"/><polygon class="cls-1" points="942.84 523.15 979.06 543.82 937.72 582.4 942.84 523.15"/><polygon class="cls-1" points="971.52 744.63 949.83 773.77 979.06 795.42 971.52 744.63"/><polygon class="cls-1" points="832.79 532 817.62 568.1 868.81 611.54 832.79 532"/><polygon class="cls-1" points="824.71 463.49 832.79 532 786.58 510.24 824.71 463.49"/><polygon class="cls-1" points="887.32 533.58 832.79 532 824.71 463.49 887.32 533.58"/><polygon class="cls-1" points="817.62 568.1 786.58 510.24 832.79 532 817.62 568.1"/><polygon class="cls-1" points="765.65 565.08 817.62 568.1 786.58 510.24 765.65 565.08"/><polygon class="cls-1" points="808.18 621.78 817.62 568.1 868.81 611.54 808.18 621.78"/><polygon class="cls-1" points="832.79 532 907.01 576.5 868.81 611.54 832.79 532"/><polygon class="cls-1" points="887.32 533.58 907.01 576.5 937.72 582.4 887.32 533.58"/><polygon class="cls-1" points="942.84 523.15 887.32 533.58 904.25 476.88 942.84 523.15"/><polyline class="cls-1" points="991.57 490.76 942.84 523.15 944.7 493.39 991.57 490.76"/><polygon class="cls-1" points="979.06 543.82 991.57 490.76 1014.44 514.76 979.06 543.82"/><polygon class="cls-1" points="979.06 600.91 979.06 543.82 1059.9 592.41 979.06 600.91"/><polygon class="cls-1" points="937.72 582.4 979.06 600.91 896.37 623.36 937.72 582.4"/><polygon class="cls-1" points="907.01 576.5 896.37 623.36 937.72 582.4 907.01 576.5"/><polygon class="cls-1" points="966.86 697.38 896.37 659.58 896.37 623.36 966.86 697.38"/><polygon class="cls-1" points="971.52 744.63 1019.23 742.62 966.86 697.38 971.52 744.63"/><polygon class="cls-1" points="1046.35 717.85 966.86 697.38 1039.7 668.25 1046.35 717.85"/><polygon class="cls-1" points="1019.23 776.92 971.52 744.63 979.06 795.42 1019.23 776.92"/><polygon class="cls-1" points="943.01 820.83 979.06 795.42 924.94 783.28 943.01 820.83"/><polygon class="cls-1" points="976.04 817.72 979.06 795.42 1019.23 776.92 976.04 817.72"/><polygon class="cls-1" points="949.83 773.77 924.94 783.28 920.7 754.48 949.83 773.77"/><polygon class="cls-1" points="971.52 744.63 906.02 730.45 966.86 697.38 971.52 744.63"/><polygon class="cls-1" points="949.83 773.77 906.02 730.45 971.52 744.63 949.83 773.77"/><polygon class="cls-1" points="915.9 690.38 966.86 697.38 906.02 730.45 915.9 690.38"/><polygon class="cls-1" points="516.33 956.92 497.36 921.34 497.36 881.82 504.59 852.45 504.59 834.38 512.7 800.34 516.8 735.57 497.36 719.18 484.75 697.38 471.48 679.96 465.83 657.87 484.75 616.27 462.16 605.68 507.35 576.5 534.51 590.28 554.2 593.03 571.11 606.81 607.57 620.36 616.89 639.5 650.21 657.87 666.8 657.87 674.49 666.38 686.35 668.25 686.35 685.87 661.3 724.55 654.61 774.16 623.11 782.82 626.26 803.69 588.74 830.73 560.7 847.37 542.64 885.77 526.82 936.03 544.36 956.92 516.33 956.92"/><polygon class="cls-1" points="565.01 758.02 599.59 697.38 612.46 773.77 565.01 758.02"/><polygon class="cls-1" points="490.02 657.87 550.1 628.08 542.64 690.4 490.02 657.87"/><polygon class="cls-1" points="627.34 663.06 649.07 708.03 657.88 688.14 627.34 663.06"/><polygon class="cls-1" points="534.51 590.28 550.1 628.08 554.2 593.03 534.51 590.28"/><polygon class="cls-1" points="607.57 620.36 550.1 628.08 616.89 639.5 607.57 620.36"/><polygon class="cls-1" points="599.59 697.38 627.34 663.06 616.89 639.5 599.59 697.38"/><polygon class="cls-1" points="565.01 758.02 542.64 690.4 599.59 697.38 565.01 758.02"/><polygon class="cls-1" points="612.46 773.77 623.11 782.82 654.61 774.16 612.46 773.77"/><polygon class="cls-1" points="599.59 697.38 654.61 774.16 661.3 724.55 599.59 697.38"/><polygon class="cls-1" points="649.07 708.03 661.3 724.55 686.35 685.87 649.07 708.03"/><polygon class="cls-1" points="657.88 688.14 686.35 685.87 686.35 668.25 657.88 688.14"/><polygon class="cls-1" points="650.21 657.87 627.34 663.06 674.49 666.38 650.21 657.87"/><polygon class="cls-1" points="657.88 688.14 674.49 666.38 686.35 668.25 657.88 688.14"/><polygon class="cls-1" points="490.02 657.87 516.8 735.57 542.64 690.4 490.02 657.87"/><polygon class="cls-1" points="484.75 616.27 507.35 576.5 462.16 605.68 484.75 616.27"/><polygon class="cls-1" points="534.51 590.28 516.33 624.31 484.75 616.27 534.51 590.28"/><polygon class="cls-1" points="465.83 657.87 490.02 657.87 484.75 616.27 465.83 657.87"/><polygon class="cls-1" points="516.33 624.31 490.02 657.87 484.75 616.27 516.33 624.31"/><polygon class="cls-1" points="490.02 657.87 471.48 679.96 493.22 685.44 490.02 657.87"/><polygon class="cls-1" points="516.33 624.31 550.1 628.08 534.51 590.28 516.33 624.31"/><polygon class="cls-1" points="516.8 735.57 565.01 758.02 512.7 800.34 516.8 735.57"/><polygon class="cls-1" points="626.26 803.69 588.74 830.73 623.11 782.82 626.26 803.69"/><polygon class="cls-1" points="612.46 773.77 588.74 830.73 565.01 758.02 612.46 773.77"/><polygon class="cls-1" points="1393.53 813.97 1403.76 821.85 1411.17 822.51 1422.98 822.51 1476.77 800.93 1516.54 840.2 1548.03 844.93 1576.23 811.46 1576.23 770.02 1551.19 738.53 1546.46 738.53 1526.39 695.81 1516.54 729.07 1501.57 717.26 1507.09 696 1485.04 696 1466.14 710.96 1455.9 708.6 1430.7 721.99 1422.04 737.74 1397.31 745.73 1387.07 767.78 1395.15 790.74 1393.53 813.97"/><polygon class="cls-1" points="816.14 413.49 808.61 418.01 808.61 439.84 808.61 456.22 820.58 455.09 824.71 460.83 843.9 456.59 857.45 430.9 867.05 425.6 869.3 415.93 882.3 418.76 895.01 409.16 902.35 419.04 927.37 437.91 928.04 449.54 934.25 443.89 933.69 436.9 933.69 436.9 938.96 438.62 939.62 435.89 918.91 421.21 911.01 409.35 910.82 402.76 917.07 399.52 917.12 406.62 923.17 404.74 923.81 410.95 928.97 416.43 933.59 416.88 943.01 425.6 944.7 438.71 958.82 459.14 968.75 446.53 959.93 437.54 973.78 432.88 985.08 458.57 1024.32 459.23 1017.24 485.1 1023.57 517.29 1054.44 563.7 1058.21 584.78 1098.77 572.36 1136.89 538.1 1117.31 519.28 1097.74 526.81 1080.04 501.91 1089.83 495.18 1095.1 506.95 1127.1 518.9 1166.25 521.54 1187.33 546.01 1195.62 537.72 1197.88 567.09 1215.95 608.39 1230.87 598.31 1233.26 572.36 1268.65 539.98 1268.65 539.98 1300.28 570.1 1313.17 562.9 1319.1 587.04 1316.09 604.36 1358.65 640.01 1341.32 577.32 1361.79 598.69 1382.27 580.83 1374.38 558.96 1375.57 549.02 1377.67 541.11 1400.38 536.5 1430.31 501.91 1420.07 472.15 1465.92 467.04 1461.02 444.17 1464.79 431.18 1490.94 421.3 1514.57 384.03 1521.64 346.1 1497.26 328.97 1529.45 293.4 1584.51 297.33 1628.56 273.07 1585.36 320.5 1596.37 363.7 1621.78 331.51 1628.56 273.07 1657.36 285.77 1702.25 262.05 1702.25 181.58 1576.04 160.41 1559.1 140.08 1513.36 136.69 1471 163.8 1459.99 122.29 1376.13 113.82 1392.23 76.55 1345.64 40.97 1263.48 93.49 1230.44 140.08 1185.62 128.22 1166.91 157.11 1171.99 190.05 1139.81 169.72 1107.52 187.98 1049.55 221.11 1028.84 249.35 1005.87 218.27 1035.79 227.75 1048.64 208.15 983.1 157.11 948.46 173.3 924.37 200.22 897.83 249.72 875.99 266.67 876.94 297.91 890.49 306.38 904.23 296.6 917.03 328.6 929.74 320.64 932.14 300.74 943.1 289.23 932.84 273.63 939.48 256.83 954.86 243 953.54 282.64 967.2 289.44 952.29 320.16 945.63 333.67 905.94 339.43 894.44 329.72 893.31 340.83 880.51 344.6 853.03 374.34 834.58 377.72 830.82 386.38 847.01 398.43 845.5 416.88 816.14 413.49"/><polygon class="cls-1" points="1492.91 755.06 1493.7 779.87 1529.55 789.71 1492.91 755.06"/><polygon class="cls-1" points="1420.46 766.14 1422.2 801.45 1453.5 774.52 1420.46 766.14"/><polygon class="cls-1" points="1492.91 755.06 1466.14 710.96 1501.57 717.26 1492.91 755.06"/><polygon class="cls-1" points="1529.55 789.71 1576.23 770.02 1576.23 811.46 1529.55 789.71"/><polygon class="cls-1" points="1516.54 840.2 1548.03 844.93 1529.55 789.71 1516.54 840.2"/><polygon class="cls-1" points="1476.77 800.93 1493.7 779.87 1453.5 774.52 1476.77 800.93"/><polygon class="cls-1" points="1455.9 708.6 1453.5 774.52 1492.91 755.06 1455.9 708.6"/><polygon class="cls-1" points="1422.04 737.74 1455.9 708.6 1420.46 766.14 1422.04 737.74"/><polygon class="cls-1" points="1387.07 767.78 1420.46 766.14 1397.31 745.73 1387.07 767.78"/><polygon class="cls-1" points="1403.76 821.85 1422.2 801.45 1395.15 790.74 1403.76 821.85"/><polygon class="cls-1" points="1422.98 822.51 1422.2 801.45 1476.77 800.93 1422.98 822.51"/><polygon class="cls-1" points="1395.15 790.74 1420.46 766.14 1422.2 801.45 1395.15 790.74"/><polygon class="cls-1" points="1411.17 822.51 1422.2 801.45 1422.98 822.51 1411.17 822.51"/><polygon class="cls-1" points="1516.54 729.07 1529.55 789.71 1492.91 755.06 1516.54 729.07"/><polygon class="cls-1" points="1546.46 738.53 1516.54 729.07 1576.23 770.02 1546.46 738.53"/><path class="cls-1" d="M462.16,605.68l-4.82-15.4,2.41-17.91-26.11-4.26,7.91-24.29-46.31,8.96v-50.7l62.1-10.24,16.34,31.31v-44.7l16.34-14.96,26.31-35.88,22.8-19.63v10.04l31.17-18.07-24.47-6.78,3.95-24.09h16.38s19.2-13.55,19.2-12.05-13.18,29.74-13.18,29.74l31.62,6.4-3.39-19.95-12.05-1.51v-29.74l-29.74-21.46-11.67-37.27-15.44,22.21-11.67-29.36-14.68-13.18h-22.59l-.38,39.91,9.79,17.32-16.94,14.68-.38,26.35-12.42-31.62-18.07,3.76-23.72-21.08h0l-1.32-12.21-16.37-1.72,11.29-38.78,26.73-25.6-16.56-7.91h21.08l-1.88-8.28s6.78,4.89,8.28,4.89,16.94-13.55,16.94-13.55l-6.4-15.44,7.53-4.52-21.08-13.55-9.41,34.26-7.15-26.35-9.04,3.39-10.92-8.66,7.15-7.53-15.81-24.47-10.16,16.56,5.27,15.81,11.67,10.92-8.66,22.59-8.28-17.69-8.28,8.66-28.24-1.51-6.02-12.8-12.05,4.52,3.01,19.58-12.42-12.05-23.34,3.76,4.52-12.42-42.16-16.19-36.89-3.01-25.6,15.06-23.91-17.32-53.27-7.53-18.82-9.41-44.05,35.39,27.86,30.12-15.06,3.76-1.88-5.65-18.82,11.29,9.79,15.44,24.47-2.26-17.69,13.93-9.04,21.08,21.84,22.21,21.84,1.51-37.65,34.64,36.14-13.55,20.33-24.09,10.92-23.34-4.52,22.59,10.92-9.41,7.91,.75-2.26-10.92,53.46,31.15,42.16,40.38-.75,15.44,16.94,21.08h0l1.88,53.84,18.07,33.13,16.56,9.79,9.41,25.98,24.47,26.73,2.26-6.78-25.22-32.38-.38-9.41,6.78,2.26,14.31,27.48,22.21,22.59,.38,12.8,42.92,19.95,8.66-4.14,14.31,12.05,17.32,3.39,9.79,10.92v4.89l15.72,7.34Z"/><polygon class="cls-1" points="526.82 936.03 516.33 956.92 544.36 956.92 526.82 936.03"/><polygon class="cls-1" points="497.36 921.34 526.82 936.03 542.64 885.77 497.36 921.34"/><polygon class="cls-1" points="497.36 881.82 542.64 885.77 504.59 852.45 497.36 881.82"/><polygon class="cls-1" points="516.33 956.92 526.25 962.57 544.36 956.92 516.33 956.92"/><polygon class="cls-1" points="493.22 685.44 484.75 697.38 471.48 679.96 493.22 685.44"/><polygon class="cls-1" points="497.36 719.18 493.22 685.44 484.75 697.38 497.36 719.18"/><polygon class="cls-1" points="550.1 628.08 571.11 606.81 607.57 620.36 550.1 628.08"/><polygon class="cls-1" points="512.7 800.34 542.64 885.77 560.7 847.37 512.7 800.34"/><polygon class="cls-1" points="588.74 830.73 512.7 800.34 560.7 847.37 588.74 830.73"/><polygon class="cls-1" points="599.59 697.38 550.1 628.08 616.89 639.5 599.59 697.38"/><polygon class="cls-1" points="1014.44 489.07 991.57 490.76 1014.44 514.76 1014.44 489.07"/><polygon class="cls-1" points="1018.11 499.79 1014.44 489.07 1014.44 514.76 1018.11 499.79"/><polygon class="cls-1" points="1232.51 619.79 1241.17 613.02 1233.12 597.63 1228.46 609.63 1232.51 619.79"/><polygon class="cls-1" points="1656.08 894.19 1664.8 875.16 1647.36 894.19 1656.08 894.19"/><polygon class="cls-1" points="1683.28 855.28 1699.71 838.52 1690.86 840.72 1683.28 855.28"/><polygon class="cls-1" points="1501.57 717.26 1485.04 696 1507.09 696 1501.57 717.26"/><polygon class="cls-1" points="1536.62 855.28 1546.07 858.85 1544.6 875.16 1536.62 855.28"/><polygon class="cls-1" points="1557.03 857.07 1544.6 875.16 1546.07 858.85 1557.03 857.07"/><polygon class="cls-1" points="1529.17 334.81 1521.64 346.1 1525.4 399.94 1536.32 373.58 1529.17 334.81"/><polygon class="cls-1" points="1521.64 403.32 1542.35 416.88 1514.86 429.68 1521.64 403.32"/><polygon class="cls-1" points="1469.69 489.16 1516.75 466.95 1525.4 436.83 1521.64 431.18 1514.86 433.82 1497.55 458.29 1465.92 476.74 1469.69 489.16"/><polygon class="cls-1" points="1536.32 373.58 1521.64 346.1 1529.17 334.81 1536.32 373.58"/><polygon class="cls-1" points="1514.86 433.82 1516.75 466.95 1497.55 458.29 1514.86 433.82"/><polygon class="cls-1" points="1469.69 489.16 1497.55 458.29 1465.92 476.74 1469.69 489.16"/><polygon class="cls-1" points="827.24 370.2 843.22 364.55 856.02 367.37 860.56 349.3 853.22 347.04 839.67 320.5 843.9 310.34 832.79 306.38 838.54 299.04 827.24 301.3 824.71 321.07 835.71 343.65 827.81 356.64 832.79 361.16 827.24 370.2"/><polygon class="cls-1" points="814.82 328.97 802.39 340.49 822.16 353.82 824.71 338.01 814.82 328.97"/><polygon class="cls-1" points="802.39 358.34 811.43 358.34 822.16 353.82 802.39 340.49 802.39 358.34"/><polygon class="cls-1" points="640.6 290.01 616.89 282 588.74 237.39 603.81 224.8 588.74 199.64 583.49 160.74 560.7 142.44 534.51 142.44 507.35 113.84 542.64 96.68 534.51 78.38 560.7 52.07 599.59 32.63 616.89 47.5 623.31 32.63 640.6 32.63 640.6 32.63 633.54 16.61 712.04 .6 745.92 23.47 710.35 58.94 745.92 41.78 765.65 54.36 786.58 48.64 802.39 58.94 765.65 88.68 754.39 150.45 751.01 192.9 725.59 224.8 725.59 224.8 657.88 262.55 640.6 290.01"/><polygon class="cls-1" points="747.05 219.42 736.32 228.45 747.05 231.28 747.05 242.57 765.65 255 782.07 242.57 786.58 230.71 776.98 217.16 761.45 223.94 753.83 231.28 751.01 224.5 747.05 219.42"/><polygon class="cls-1" points="1.08 188.36 1.08 236.08 34.96 244.83 47.38 224.5 37.22 209.82 24.23 209.82 1.08 188.36"/><polygon class="cls-1" points="473.68 478.45 457.34 491.84 473.68 523.15 473.68 478.45"/><polygon class="cls-1" points="420.47 410.38 457.34 491.84 395.24 502.08 420.47 410.38"/><polygon class="cls-1" points="474.68 361.16 420.47 410.38 490.02 463.49 474.68 361.16"/><polygon class="cls-1" points="444.18 333.3 474.68 361.16 462.25 329.54 444.18 333.3"/><polygon class="cls-1" points="516.33 427.6 474.68 361.16 558.63 320.5 516.33 427.6"/><polygon class="cls-1" points="539.13 407.97 570.3 399.94 539.13 418.01 539.13 407.97"/><polygon class="cls-1" points="545.83 393.16 516.33 427.6 539.13 407.97 545.83 393.16"/><polygon class="cls-1" points="549.78 369.07 558.63 320.5 566.16 369.07 549.78 369.07"/><polygon class="cls-1" points="585.36 357.02 588.37 341.96 558.63 320.5 585.36 357.02"/><polygon class="cls-1" points="588.37 371.7 572.18 386.76 600.42 373.21 588.37 371.7"/><polygon class="cls-1" points="505.17 262.9 482.21 302.81 482.58 262.9 505.17 262.9"/><polygon class="cls-1" points="519.85 276.08 482.21 302.81 505.17 262.9 519.85 276.08"/><polygon class="cls-1" points="531.52 305.44 474.68 361.16 558.63 320.5 531.52 305.44"/><polygon class="cls-1" points="492 320.12 474.68 361.16 475.05 334.81 492 320.12"/><polygon class="cls-1" points="531.52 305.44 492 320.12 519.85 276.08 531.52 305.44"/><polygon class="cls-1" points="282.68 472.22 341.6 435.14 264.61 439.09 282.68 472.22"/><polygon class="cls-1" points="395.24 502.08 316.56 488.41 330.87 515.89 395.24 502.08"/><polygon class="cls-1" points="353.08 538.48 395.24 502.08 395.24 552.77 353.08 538.48"/><polygon class="cls-1" points="396.37 571.23 395.24 552.77 353.45 551.28 396.37 571.23"/><polygon class="cls-1" points="433.64 568.1 395.24 552.77 441.55 543.82 433.64 568.1"/><polygon class="cls-1" points="419.34 579.14 433.64 568.1 405.03 567.09 419.34 579.14"/><polygon class="cls-1" points="395.24 552.77 405.03 567.09 396.37 571.23 395.24 552.77"/><polygon class="cls-1" points="436.65 582.52 433.64 568.1 459.75 572.36 436.65 582.52"/><polygon class="cls-1" points="446.44 593.44 457.34 590.28 446.44 598.34 446.44 593.44"/><polygon class="cls-1" points="459.75 572.36 446.44 593.44 436.65 582.52 459.75 572.36"/><polygon class="cls-1" points="335.38 527.94 308.65 507.98 333.12 534.71 335.38 527.94"/><polygon class="cls-1" points="310.16 495.56 308.65 507.98 299.24 482.01 310.16 495.56"/><polygon class="cls-1" points="395.24 502.08 341.6 435.14 316.56 488.41 395.24 502.08"/><line class="cls-1" x1="299.24" y1="482.01" x2="309.78" y2="486.15"/><polygon class="cls-1" points="420.47 410.38 341.6 435.14 395.24 502.08 420.47 410.38"/><polygon class="cls-1" points="355.9 366.62 420.47 312.22 420.47 410.38 355.9 366.62"/><polygon class="cls-1" points="341.6 435.14 355.9 366.62 420.47 410.38 341.6 435.14"/><polygon class="cls-1" points="262.73 385.25 341.6 435.14 264.61 439.09 262.73 385.25"/><polygon class="cls-1" points="262.73 385.25 355.9 366.62 341.6 435.14 262.73 385.25"/><polygon class="cls-1" points="330.87 290.01 355.9 366.62 420.47 312.22 330.87 290.01"/><polygon class="cls-1" points="402.77 298.29 420.47 312.22 330.87 290.01 402.77 298.29"/><polygon class="cls-1" points="65.83 189.11 128.7 163.14 109.88 153.72 65.83 189.11"/><polygon class="cls-1" points="330.87 290.01 414.07 259.51 341.78 212.83 330.87 290.01"/><polygon class="cls-1" points="246.54 348.74 330.87 290.01 355.9 366.62 246.54 348.74"/><polygon class="cls-1" points="250.68 244.83 246.54 348.74 330.87 290.01 250.68 244.83"/><polygon class="cls-1" points="341.78 212.83 250.68 244.83 330.87 290.01 341.78 212.83"/><polygon class="cls-1" points="158.07 236.08 250.68 244.83 150.91 277.21 158.07 236.08"/><polygon class="cls-1" points="205.88 187.98 158.07 236.08 250.68 244.83 205.88 187.98"/><polygon class="cls-1" points="93.69 219.23 158.07 236.08 128.7 163.14 93.69 219.23"/><polygon class="cls-1" points="109.13 300.55 93.69 219.23 158.07 236.08 109.13 300.55"/><polygon class="cls-1" points="138.87 274.2 150.91 277.21 158.07 236.08 138.87 274.2"/><polygon class="cls-1" points="109.13 300.55 127.95 297.54 158.07 236.08 109.13 300.55"/><polygon class="cls-1" points="107.62 321.63 109.13 300.55 127.95 297.54 107.62 321.63"/><polygon class="cls-1" points="138.87 274.2 145.27 287.37 134.35 296.78 138.87 274.2"/><polygon class="cls-1" points="150.91 277.21 145.27 287.37 153.17 288.12 150.91 277.21"/><polygon class="cls-1" points="65.45 276.83 92.18 241.82 87.29 299.04 65.45 276.83"/><polygon class="cls-1" points="78.63 223 67.71 244.08 76.75 217.35 78.63 223"/><polygon class="cls-1" points="93.69 219.23 92.18 241.82 78.63 223 93.69 219.23"/><polygon class="cls-1" points="205.88 187.98 268.37 175.94 231.48 172.92 205.88 187.98"/><polygon class="cls-1" points="306.02 204.55 268.37 175.94 310.54 192.12 306.02 204.55"/><polygon class="cls-1" points="341.78 212.83 306.02 204.55 329.36 200.78 341.78 212.83"/><polygon class="cls-1" points="250.68 244.83 306.02 204.55 341.78 212.83 250.68 244.83"/><polygon class="cls-1" points="268.37 175.94 250.68 244.83 306.02 204.55 268.37 175.94"/><polygon class="cls-1" points="181.97 170.67 158.07 236.08 205.88 187.98 181.97 170.67"/><polygon class="cls-1" points="204.37 308.36 250.68 244.83 150.91 277.21 204.37 308.36"/><polygon class="cls-1" points="887.32 374.05 895.01 409.16 845.5 416.88 887.32 374.05"/><polygon class="cls-1" points="853.03 374.34 887.32 374.05 847.01 398.43 853.03 374.34"/><polygon class="cls-1" points="958.39 369.07 887.32 374.05 905.94 339.43 958.39 369.07"/><polygon class="cls-1" points="923.17 404.74 887.32 374.05 958.39 369.07 923.17 404.74"/><polygon class="cls-1" points="1024.61 334.62 958.39 369.07 945.63 333.67 1024.61 334.62"/><polygon class="cls-1" points="996.46 392.97 958.39 369.07 1024.61 334.62 996.46 392.97"/><polygon class="cls-1" points="923.17 404.74 996.46 392.97 943.01 425.6 923.17 404.74"/><polygon class="cls-1" points="1024.61 334.62 967.2 289.44 945.63 333.67 1024.61 334.62"/><polygon class="cls-1" points="1059.9 289.44 1024.61 334.62 1116.94 333.3 1059.9 289.44"/><polygon class="cls-1" points="1083.9 416.88 1024.61 334.62 1116.94 333.3 1083.9 416.88"/><polygon class="cls-1" points="996.46 392.97 1083.9 416.88 1024.61 334.62 996.46 392.97"/><polygon class="cls-1" points="1183.01 408.97 1116.94 333.3 1083.9 416.88 1183.01 408.97"/><polygon class="cls-1" points="1133.45 485.68 1183.01 408.97 1083.9 416.88 1133.45 485.68"/><polygon class="cls-1" points="1128.79 249.72 1139.81 169.72 1049.55 221.11 1128.79 249.72"/><polygon class="cls-1" points="1116.94 333.3 1128.79 249.72 1059.9 289.44 1116.94 333.3"/><polygon class="cls-1" points="1049.55 221.11 1059.9 289.44 1128.79 249.72 1049.55 221.11"/><polygon class="cls-1" points="1171.99 190.05 1128.79 249.72 1139.81 169.72 1171.99 190.05"/><polygon class="cls-1" points="1214.37 296.6 1128.79 249.72 1171.99 190.05 1214.37 296.6"/><polygon class="cls-1" points="1116.94 333.3 1214.37 296.6 1128.79 249.72 1116.94 333.3"/><polygon class="cls-1" points="1277.31 200.22 1214.37 296.6 1171.99 190.05 1277.31 200.22"/><polygon class="cls-1" points="1185.62 128.22 1171.99 190.05 1166.91 157.11 1185.62 128.22"/><polygon class="cls-1" points="1230.44 140.08 1277.31 200.22 1171.99 190.05 1230.44 140.08"/><polygon class="cls-1" points="1263.48 93.49 1277.31 200.22 1230.44 140.08 1263.48 93.49"/><polygon class="cls-1" points="1376.13 113.82 1345.64 40.97 1392.23 76.55 1376.13 113.82"/><polygon class="cls-1" points="1263.48 93.49 1376.13 113.82 1345.64 40.97 1263.48 93.49"/><polygon class="cls-1" points="1277.31 200.22 1376.13 113.82 1384.3 224.78 1277.31 200.22"/><polygon class="cls-1" points="1471 163.8 1376.13 113.82 1459.99 122.29 1471 163.8"/><polygon class="cls-1" points="1559.1 140.08 1471 163.8 1513.36 136.69 1559.1 140.08"/><polygon class="cls-1" points="1546.3 193.44 1471 163.8 1559.1 140.08 1546.3 193.44"/><polygon class="cls-1" points="1529.45 293.4 1546.3 193.44 1584.51 297.33 1529.45 293.4"/><polygon class="cls-1" points="1576.04 160.41 1702.25 262.05 1702.25 181.58 1576.04 160.41"/><polygon class="cls-1" points="1546.3 193.44 1576.04 160.41 1628.56 273.07 1546.3 193.44"/><polygon class="cls-1" points="1702.25 262.05 1628.56 273.07 1657.36 285.77 1702.25 262.05"/><polygon class="cls-1" points="1628.56 273.07 1628.56 273.07 1657.36 285.77 1628.56 273.07"/><polygon class="cls-1" points="1214.37 296.6 1183.01 408.97 1272.79 386.24 1214.37 296.6"/><polygon class="cls-1" points="1384.3 224.78 1299.07 285.77 1277.31 200.22 1384.3 224.78"/><polygon class="cls-1" points="1214.37 296.6 1299.07 285.77 1277.31 200.22 1214.37 296.6"/><polygon class="cls-1" points="1272.79 386.24 1299.07 285.77 1214.37 296.6 1272.79 386.24"/><polygon class="cls-1" points="1133.45 485.68 1234.82 489.07 1183.01 408.97 1133.45 485.68"/><polygon class="cls-1" points="1166.25 521.54 1133.45 485.68 1234.82 489.07 1166.25 521.54"/><polygon class="cls-1" points="1268.65 539.98 1234.82 489.07 1319.81 443.32 1268.65 539.98"/><polygon class="cls-1" points="1272.79 386.24 1234.82 489.07 1319.81 443.32 1272.79 386.24"/><polygon class="cls-1" points="1387.07 392.93 1272.79 386.24 1319.81 443.32 1387.07 392.93"/><polygon class="cls-1" points="1382.27 472.15 1387.07 392.93 1319.81 443.32 1382.27 472.15"/><polygon class="cls-1" points="1377.67 541.11 1430.31 501.91 1400.38 536.5 1377.67 541.11"/><polygon class="cls-1" points="1382.27 472.15 1377.67 541.11 1430.31 501.91 1382.27 472.15"/><polygon class="cls-1" points="1420.07 472.15 1382.27 472.15 1430.31 501.91 1420.07 472.15"/><polygon class="cls-1" points="1387.07 392.93 1420.07 472.15 1461.02 444.17 1387.07 392.93"/><polygon class="cls-1" points="1299.07 285.77 1387.07 302.81 1384.3 224.78 1299.07 285.77"/><polygon class="cls-1" points="1471 163.8 1384.3 224.78 1376.13 113.82 1471 163.8"/><polygon class="cls-1" points="1387.07 302.81 1497.26 328.97 1384.3 224.78 1387.07 302.81"/><polygon class="cls-1" points="1387.07 392.93 1387.07 302.81 1299.07 285.77 1387.07 392.93"/><polygon class="cls-1" points="1471 163.8 1497.26 328.97 1529.45 293.4 1471 163.8"/><polygon class="cls-1" points="1024.32 459.23 1080.04 501.91 1083.9 416.88 1024.32 459.23"/><polygon class="cls-1" points="973.78 432.88 1024.32 459.23 985.08 458.57 973.78 432.88"/><polygon class="cls-1" points="996.46 392.97 973.78 432.88 1083.9 416.88 996.46 392.97"/><polygon class="cls-1" points="1089.83 495.18 1133.45 485.68 1095.1 506.95 1089.83 495.18"/><polygon class="cls-1" points="1127.1 518.9 1133.45 485.68 1166.25 521.54 1127.1 518.9"/><polygon class="cls-1" points="1197.88 567.09 1230.87 598.31 1215.95 608.39 1197.88 567.09"/><polygon class="cls-1" points="1234.82 489.07 1195.62 537.72 1233.26 572.36 1234.82 489.07"/><polygon class="cls-1" points="1197.88 567.09 1233.26 572.36 1230.87 598.31 1197.88 567.09"/><polygon class="cls-1" points="1097.74 526.81 1098.77 572.36 1054.44 563.7 1097.74 526.81"/><polygon class="cls-1" points="1136.89 538.1 1097.74 526.81 1117.31 519.28 1136.89 538.1"/><polygon class="cls-1" points="1017.24 485.1 1080.04 501.91 1023.57 517.29 1017.24 485.1"/><polygon class="cls-1" points="1097.74 526.81 1023.57 517.29 1054.44 563.7 1097.74 526.81"/><polygon class="cls-1" points="904.23 296.6 875.99 266.67 932.84 273.63 904.23 296.6"/><polygon class="cls-1" points="897.83 249.72 954.86 243 924.37 200.22 897.83 249.72"/><polygon class="cls-1" points="948.46 173.3 954.86 243 924.37 200.22 948.46 173.3"/><polygon class="cls-1" points="967.2 289.44 1059.9 289.44 1024.61 334.62 967.2 289.44"/><polygon class="cls-1" points="1341.32 577.32 1268.65 539.98 1377.67 541.11 1341.32 577.32"/><polygon class="cls-1" points="1374.38 558.96 1361.79 598.69 1382.27 580.83 1374.38 558.96"/><polygon class="cls-1" points="1341.32 577.32 1374.38 558.96 1361.79 598.69 1341.32 577.32"/><polygon class="cls-1" points="1319.1 587.04 1358.65 640.01 1316.09 604.36 1319.1 587.04"/><polygon class="cls-1" points="1341.32 577.32 1319.1 587.04 1313.17 562.9 1341.32 577.32"/><polygon class="cls-1" points="1268.65 539.98 1313.17 562.9 1300.28 570.1 1268.65 539.98"/><polygon class="cls-1" points="1233.12 597.63 1232.51 619.79 1241.17 613.02 1233.12 597.63"/><polygon class="cls-1" points="834.96 433.25 820.58 455.09 843.9 456.59 834.96 433.25"/><polygon class="cls-1" points="857.45 430.9 834.96 433.25 845.5 416.88 857.45 430.9"/><polygon class="cls-1" points="816.14 413.49 834.96 433.25 820.58 426.48 816.14 413.49"/><polygon class="cls-1" points="820.58 455.09 820.58 426.48 808.61 418.01 820.58 455.09"/><polygon class="cls-1" points="834.58 377.72 847.01 398.43 830.82 386.38 834.58 377.72"/><polygon class="cls-1" points="880.51 344.6 887.32 374.05 893.31 340.83 880.51 344.6"/><polygon class="cls-1" points="905.94 339.43 893.31 340.83 894.44 329.72 905.94 339.43"/><polygon class="cls-1" points="1059.9 592.41 1080.65 627.29 1098.77 583.19 1059.9 592.41"/><polygon class="cls-1" points="943.01 425.6 959.93 437.54 944.7 438.71 943.01 425.6"/><polygon class="cls-1" points="996.46 392.97 943.01 425.6 973.78 432.88 996.46 392.97"/><polygon class="cls-1" points="968.75 446.53 944.7 438.71 958.82 459.14 968.75 446.53"/><polygon class="cls-1" points="895.01 409.16 910.82 402.76 911.01 409.35 895.01 409.16"/><polygon class="cls-1" points="869.3 415.93 857.45 430.9 867.05 425.6 869.3 415.93"/><polygon class="cls-1" points="895.01 409.16 869.3 415.93 882.3 418.76 895.01 409.16"/><polygon class="cls-1" points="902.35 419.04 918.91 421.21 927.37 437.91 902.35 419.04"/><polygon class="cls-1" points="933.69 436.9 927.37 437.91 933.69 436.9 933.69 436.9"/><polygon class="cls-1" points="934.25 443.89 927.37 437.91 933.69 436.9 934.25 443.89"/><polygon class="cls-1" points="802.39 340.49 824.71 338.01 814.82 328.97 802.39 340.49"/><polygon class="cls-1" points="843.22 364.55 860.56 349.3 853.22 347.04 843.22 364.55"/><polygon class="cls-1" points="835.71 343.65 853.22 347.04 839.67 320.5 835.71 343.65"/><polygon class="cls-1" points="824.71 321.07 839.67 320.5 832.79 306.38 824.71 321.07"/><polygon class="cls-1" points="827.81 356.64 832.79 361.16 853.22 347.04 827.81 356.64"/><polygon class="cls-1" points="832.79 361.16 843.22 364.55 827.24 370.2 832.79 361.16"/><polygon class="cls-1" points="811.43 358.34 802.39 340.49 822.16 353.82 811.43 358.34"/><polygon class="cls-1" points="747.05 219.42 747.05 231.28 751.01 224.5 747.05 219.42"/><polygon class="cls-1" points="753.83 231.28 747.05 242.57 782.07 242.57 753.83 231.28"/><polygon class="cls-1" points="776.98 217.16 782.07 242.57 786.58 230.71 776.98 217.16"/><polygon class="cls-1" points="761.45 223.94 782.07 242.57 776.98 217.16 761.45 223.94"/><polygon class="cls-1" points="583.49 160.74 649.08 200.78 640.6 146.16 583.49 160.74"/><polygon class="cls-1" points="603.81 224.8 649.08 200.78 583.49 160.74 603.81 224.8"/><polygon class="cls-1" points="657.88 262.55 603.81 224.8 616.89 282 657.88 262.55"/><polygon class="cls-1" points="645.41 89.44 640.6 146.16 560.7 142.44 645.41 89.44"/><polygon class="cls-1" points="710.35 58.94 645.41 89.44 640.6 32.63 710.35 58.94"/><polygon class="cls-1" points="542.64 96.68 534.51 142.44 560.7 142.44 542.64 96.68"/><polygon class="cls-1" points="645.41 89.44 542.64 96.68 560.7 142.44 645.41 89.44"/><polygon class="cls-1" points="560.7 52.07 542.64 96.68 645.41 89.44 560.7 52.07"/><polygon class="cls-1" points="640.6 32.63 616.89 47.5 623.31 32.63 640.6 32.63"/><polygon class="cls-1" points="560.7 52.07 616.89 47.5 599.59 32.63 560.7 52.07"/><polygon class="cls-1" points="802.39 58.94 765.65 54.36 786.58 48.64 802.39 58.94"/><polygon class="cls-1" points="710.35 58.94 765.65 54.36 745.92 41.78 710.35 58.94"/><polygon class="cls-1" points="932.14 300.74 917.03 328.6 904.23 296.6 932.14 300.74"/><polygon class="cls-1" points="932.84 273.63 932.14 300.74 943.1 289.23 932.84 273.63"/><polygon class="cls-1" points="24.23 209.82 1.08 236.08 47.38 224.5 24.23 209.82"/><polygon class="cls-1" points="391.29 179.04 380.56 187.8 393.36 194.38 400.32 191.75 398.07 183.56 391.29 179.04"/><polygon class="cls-1" points="449.74 227.61 444.18 232.69 440.7 251.42 449.74 259.23 459.34 244.83 472.61 255.84 472.61 250.2 449.74 227.61"/><polygon class="cls-1" points="1094.68 143.94 1094.68 152.97 1105.64 152.97 1108.28 165.07 1124.09 167.65 1114.3 146.95 1118.44 125.49 1107.15 125.49 1101.12 140.08 1094.68 143.94"/><polygon class="cls-1" points="1109.38 116.45 1113.17 122.85 1122.21 122.85 1144.04 88.97 1178.63 67.51 1178.63 56.97 1171.99 54.71 1131.62 79.18 1120.32 88.78 1109.38 116.45"/><polygon class="cls-1" points="1509.03 71.28 1502.06 77.3 1500.37 92.36 1509.97 102.9 1525.22 94.81 1534.82 94.62 1540.09 84.27 1528.04 75.98 1517.88 81.44 1509.03 71.28"/><polygon class="cls-1" points="1546.3 87.09 1543.66 92.17 1553.08 99.51 1561.73 99.51 1565.12 95 1562.68 89.73 1546.3 87.09"/><polygon class="cls-1" points="1333.22 .6 1327.01 17.54 1333.22 29.68 1343.1 29.68 1351.57 21.49 1349.88 12.74 1333.22 .6"/><polygon class="cls-1" points="1427.95 519.84 1420.46 526.05 1419.55 534.31 1422.37 537.91 1427.24 534.88 1429.77 522.62 1427.95 519.84"/><polygon class="cls-1" points="1423.61 553.58 1432.46 556.12 1432.46 564.74 1427.55 572.36 1447.29 586.34 1446.58 596.78 1451.8 604.12 1446.02 618.29 1429.36 611.51 1428.73 605.54 1433.85 604.27 1425.12 587.04 1418.06 572.78 1418.06 565.02 1423.61 553.58"/><polygon class="cls-1" points="926.21 449.68 914.21 448.92 911.01 451.37 920.84 458.15 925.36 458.15 926.21 449.68"/><polygon class="cls-1" points="891.76 443.89 898.39 442.19 899.81 435.89 896.77 429.49 890.77 433.87 891.76 443.89 891.76 443.89"/><polygon class="cls-1" points="895.29 428.55 892.46 427.09 893.03 421.21 897.12 419.04 898.39 423.42 895.29 428.55"/><polygon class="cls-1" points="824.71 463.49 904.25 476.88 904.25 453.21 824.71 463.49"/><polygon class="cls-1" points="1005.87 218.27 948.46 173.3 983.1 157.11 1005.87 218.27"/><polygon class="cls-1" points="954.86 243 1005.87 218.27 967.2 289.44 954.86 243"/><polygon class="cls-1" points="1028.84 249.35 1059.9 289.44 967.2 289.44 1028.84 249.35"/><polygon class="cls-1" points="1035.79 227.75 983.1 157.11 1048.64 208.15 1035.79 227.75"/><polygon class="cls-1" points="356.84 201.54 341.78 212.83 414.07 259.51 356.84 201.54"/><polygon class="cls-1" points="385.08 203.04 401.64 212.08 414.07 259.51 385.08 203.04"/><polygon class="cls-1" points="424.23 226.01 410.3 189.49 439.29 209.82 424.23 226.01"/><polygon class="cls-1" points="414.07 259.51 424.23 226.01 401.64 212.08 414.07 259.51"/><polygon class="cls-1" points="439.29 209.82 443.43 217.72 468.65 209.07 439.29 209.82"/><polygon class="cls-1" points="462.25 193.63 448.7 175.56 439.29 209.82 462.25 193.63"/><polygon class="cls-1" points="440.7 251.42 459.34 244.83 444.18 232.69 440.7 251.42"/><polygon class="cls-1" points="449.74 227.61 459.34 244.83 472.61 250.2 449.74 227.61"/><polygon class="cls-1" points="391.29 179.04 393.36 194.38 398.07 183.56 391.29 179.04"/><polygon class="cls-1" points="1105.64 152.97 1114.3 146.95 1101.12 140.08 1105.64 152.97"/><polygon class="cls-1" points="1118.44 125.49 1101.12 140.08 1114.3 146.95 1118.44 125.49"/><polygon class="cls-1" points="1108.28 165.07 1114.3 146.95 1124.09 167.65 1108.28 165.07"/><polygon class="cls-1" points="1094.68 143.94 1105.64 152.97 1094.68 152.97 1094.68 143.94"/><polygon class="cls-1" points="1122.21 122.85 1120.32 88.78 1109.38 116.45 1122.21 122.85"/><polygon class="cls-1" points="1144.04 88.97 1120.32 88.78 1131.62 79.18 1144.04 88.97"/><polygon class="cls-1" points="1171.99 54.71 1144.04 88.97 1178.63 67.51 1171.99 54.71"/><polygon class="cls-1" points="1327.01 17.54 1349.88 12.74 1343.1 29.68 1327.01 17.54"/><polygon class="cls-1" points="1502.06 77.3 1517.88 81.44 1509.97 102.9 1502.06 77.3"/><polygon class="cls-1" points="1525.22 94.81 1517.88 81.44 1540.09 84.27 1525.22 94.81"/><polygon class="cls-1" points="1546.3 87.09 1553.08 99.51 1562.68 89.73 1546.3 87.09"/><polygon class="cls-1" points="1561.73 99.51 1562.68 89.73 1565.12 95 1561.73 99.51"/><polygon class="cls-1" points="695.8 120.97 698.21 172.95 640.6 146.16 695.8 120.97"/><polygon class="cls-1" points="754.39 150.45 695.8 120.97 698.21 172.95 754.39 150.45"/><polygon class="cls-1" points="393.36 162.76 419.34 170.67 410.58 174.01 398.63 178.57 393.36 162.76"/><polygon class="cls-1" points="410.3 189.49 412.18 178.2 423.1 186.85 410.3 189.49"/><polygon class="cls-1" points="412.18 178.2 398.63 178.57 419.34 170.67 412.18 178.2"/><polygon class="cls-1" points="423.1 186.85 439.29 209.82 410.3 189.49 423.1 186.85"/><polygon class="cls-1" points="1316.09 649.93 1354.71 646.19 1309.31 619.79 1316.09 649.93"/><polygon class="cls-1" points="890.77 433.87 899.81 435.89 891.76 443.89 890.77 433.87"/><polygon class="cls-1" points="893.03 421.21 898.39 423.42 892.46 427.09 893.03 421.21"/><polygon class="cls-1" points="914.21 448.92 920.84 458.15 926.21 449.68 914.21 448.92"/><polygon class="cls-1" points="1514.57 384.03 1464.79 431.18 1497.26 328.97 1514.57 384.03"/><polygon class="cls-1" points="1419.55 534.31 1427.24 534.88 1427.95 519.84 1419.55 534.31"/><polygon class="cls-1" points="1427.55 572.36 1418.06 565.02 1432.46 556.12 1427.55 572.36"/><polygon class="cls-1" points="1418.06 572.78 1447.29 586.34 1433.85 604.27 1418.06 572.78"/><polygon class="cls-1" points="1446.58 596.78 1433.85 604.27 1446.02 618.29 1446.58 596.78"/><polygon class="cls-1" points="1428.73 605.54 1446.02 618.29 1433.85 604.27 1428.73 605.54"/><polygon class="cls-1" points="1596.37 363.7 1628.56 273.07 1621.78 331.51 1596.37 363.7"/><polygon class="cls-1" points="1319.81 443.32 1377.67 541.11 1268.65 539.98 1319.81 443.32"/><polygon class="cls-1" points="1195.62 537.72 1166.25 521.54 1187.33 546.01 1195.62 537.72"/><polygon class="cls-1" points="918.91 421.21 939.62 435.89 927.37 437.91 918.91 421.21"/><polygon class="cls-1" points="929.26 411.15 923.81 410.95 928.97 416.43 929.26 411.15"/><polygon class="cls-1" points="1387.07 392.93 1497.26 328.97 1387.07 302.81 1387.07 392.93"/><polygon class="cls-1" points="1476.77 800.93 1529.55 789.71 1516.54 840.2 1476.77 800.93"/><polygon class="cls-1" points="338.77 193.25 356.84 201.54 350.82 188.74 338.77 193.25"/><polygon class="cls-1" points="712.04 .6 640.6 32.63 710.35 58.94 712.04 .6"/><polygon class="cls-1" points="645.41 89.44 695.8 120.97 640.6 146.16 645.41 89.44"/><polygon class="cls-1" points="695.8 120.97 710.35 58.94 754.39 150.45 695.8 120.97"/><polygon class="cls-1" points="765.65 88.68 710.35 58.94 765.65 54.36 765.65 88.68"/><polygon class="cls-1" points="649.08 200.78 657.88 262.55 725.59 224.8 649.08 200.78"/><polygon class="cls-1" points="649.08 200.78 698.21 172.95 725.59 224.8 649.08 200.78"/><polygon class="cls-1" points="751.01 192.9 698.21 172.95 754.39 150.45 751.01 192.9"/><polygon class="cls-1" points="645.41 89.44 616.89 47.5 560.7 52.07 645.41 89.44"/></g></svg>